<svg width="1000" height="1000" viewBox="0 0 1000 1000" fill="none" xmlns="http://www.w3.org/2000/svg">
<path d="M200 332.046C200 265.746 253.726 212 320 212H484.36V320.316C477.732 387.043 427.038 440.812 361.773 452.141C355.696 453.196 351 458.31 351 464.481V473.991C351 480.162 355.696 485.276 361.773 486.331C423.486 497.043 472.171 545.703 482.892 607.382C483.948 613.461 489.06 618.156 495.228 618.156H504.77C510.937 618.156 516.049 613.461 517.105 607.382C527.826 545.703 576.513 497.043 638.227 486.331C644.304 485.276 649 480.162 649 473.991V464.481C649 458.31 644.304 453.196 638.227 452.141C572.961 440.812 522.265 387.043 515.637 320.316V212H680C746.274 212 800 265.746 800 332.046V547.908C800 588.045 779.948 625.527 746.564 647.792L566.564 767.838C526.257 794.72 473.743 794.72 433.436 767.838L253.437 647.792C220.053 625.527 200 588.045 200 547.908V332.046Z" fill="white"/>
</svg>
