<svg width="169" height="164" viewBox="0 0 169 164" fill="none" xmlns="http://www.w3.org/2000/svg">
<path d="M150.533 1.13223C112.363 29.4362 56.0721 29.4376 17.9022 1.13374C15.687 -0.50891 12.5846 -0.368158 10.6345 1.58191L1.58111 10.6353C-0.368971 12.5854 -0.510274 15.6883 1.13935 17.8983C29.4347 55.8064 29.4333 108.159 1.13786 146.068C-0.511757 148.278 -0.370457 151.381 1.57962 153.331L10.6345 162.385C12.5846 164.336 15.687 164.476 17.9022 162.834C56.0723 134.53 112.365 134.53 150.535 162.834C152.75 164.476 155.852 164.336 157.802 162.385L166.856 153.332C168.806 151.382 168.947 148.279 167.297 146.069C139.002 108.161 139.002 55.8066 167.297 17.8983C168.947 15.6883 168.806 12.5854 166.856 10.6353L157.801 1.58041C155.851 -0.369663 152.748 -0.510413 150.533 1.13223Z" fill="#CCC4FD"/>
</svg>
