<svg width="3000" height="1000" viewBox="0 0 3000 1000" fill="none" xmlns="http://www.w3.org/2000/svg">
<path d="M284 331.935C284 265.635 337.726 211.889 404 211.889H568.36V320.205C561.732 386.932 511.038 440.701 445.773 452.03C439.696 453.085 435 458.199 435 464.37V473.88C435 480.051 439.696 485.165 445.773 486.22C507.486 496.932 556.171 545.592 566.892 607.271C567.948 613.35 573.06 618.045 579.228 618.045H588.77C594.937 618.045 600.049 613.35 601.105 607.271C611.826 545.592 660.513 496.932 722.227 486.22C728.304 485.165 733 480.051 733 473.88V464.37C733 458.199 728.304 453.085 722.227 452.03C656.961 440.701 606.265 386.932 599.637 320.205V211.889H764C830.274 211.889 884 265.635 884 331.935V547.796C884 587.934 863.948 625.416 830.564 647.681L650.564 767.727C610.257 794.609 557.743 794.609 517.436 767.727L337.437 647.681C304.053 625.416 284 587.934 284 547.796V331.935Z" fill="white"/>
<path d="M1033 702.889V296.889H1169.88C1213.96 296.889 1247.6 306.749 1270.8 326.469C1294 346.189 1305.6 371.902 1305.6 403.609C1305.6 422.942 1300.77 439.762 1291.1 454.069C1281.82 467.989 1264.81 479.589 1240.06 488.869C1273.31 496.602 1296.32 509.362 1309.08 527.149C1321.84 544.549 1328.22 565.815 1328.22 590.949C1328.22 624.975 1315.27 652.235 1289.36 672.729C1263.45 692.835 1228.46 702.889 1184.38 702.889H1033ZM1114.2 464.509H1162.34C1184.38 464.509 1200.04 460.642 1209.32 452.909C1218.6 444.789 1223.24 432.609 1223.24 416.369C1223.24 402.449 1218.6 391.235 1209.32 382.729C1200.04 373.835 1184.38 369.389 1162.34 369.389H1114.2V464.509ZM1114.2 629.809H1176.84C1198.88 629.809 1215.89 625.749 1227.88 617.629C1239.87 609.122 1245.86 595.975 1245.86 578.189C1245.86 563.495 1239.87 551.895 1227.88 543.389C1215.89 534.882 1198.88 530.629 1176.84 530.629H1114.2V629.809ZM1360.25 702.889V401.289H1436.23V458.709C1441.25 437.055 1451.5 420.622 1466.97 409.409C1482.43 397.809 1503.31 392.782 1529.61 394.329V467.989H1518.59C1496.16 467.989 1477.21 475.142 1461.75 489.449C1446.28 503.755 1438.55 523.475 1438.55 548.609V702.889H1360.25ZM1667.6 709.849C1645.94 709.849 1626.42 704.822 1609.02 694.769C1591.62 684.715 1577.89 670.409 1567.84 651.849C1557.78 632.902 1552.76 610.862 1552.76 585.729V401.289H1631.06V566.589C1631.06 592.495 1636.28 611.442 1646.72 623.429C1657.16 635.415 1672.04 641.409 1691.38 641.409C1708 641.409 1722.5 635.415 1734.88 623.429C1747.64 611.442 1754.02 592.495 1754.02 566.589V401.289H1832.32V702.889H1756.34V657.649C1748.99 675.049 1738.16 688.195 1723.86 697.089C1709.94 705.595 1691.18 709.849 1667.6 709.849ZM1878.51 702.889V401.289H1955.65V445.369C1971.5 411.342 2002.24 394.329 2047.87 394.329C2069.14 394.329 2088.28 399.355 2105.29 409.409C2122.3 419.075 2135.84 432.995 2145.89 451.169C2155.94 432.995 2168.7 419.075 2184.17 409.409C2200.02 399.355 2221.29 394.329 2247.97 394.329C2269.62 394.329 2289.15 399.355 2306.55 409.409C2323.95 419.462 2337.68 433.769 2347.73 452.329C2357.78 470.889 2362.81 492.929 2362.81 518.449V702.889H2284.51V537.589C2284.51 511.295 2278.9 492.349 2267.69 480.749C2256.48 468.762 2241.98 462.769 2224.19 462.769C2206.02 462.769 2191.13 467.989 2179.53 478.429C2168.32 488.869 2162.71 508.589 2162.71 537.589V702.889H2084.41V537.589C2084.41 511.295 2078.42 492.349 2066.43 480.749C2054.44 468.762 2038.78 462.769 2019.45 462.769C2002.82 462.769 1988.13 468.762 1975.37 480.749C1963 492.349 1956.81 511.295 1956.81 537.589V702.889H1878.51ZM2550.82 710.429C2519.89 710.429 2492.63 703.275 2469.04 688.969C2445.45 674.662 2427.09 655.715 2413.94 632.129C2401.18 608.155 2394.8 581.669 2394.8 552.669C2394.8 523.669 2401.57 497.182 2415.1 473.209C2428.63 448.849 2447 429.515 2470.2 415.209C2493.79 400.902 2520.66 393.749 2550.82 393.749C2580.98 393.749 2607.47 400.902 2630.28 415.209C2653.48 429.515 2671.46 448.849 2684.22 473.209C2697.37 497.182 2703.94 523.669 2703.94 552.669C2703.94 556.922 2703.75 561.369 2703.36 566.009C2702.97 570.649 2702.39 575.482 2701.62 580.509H2476C2480.25 598.295 2488.76 612.795 2501.52 624.009C2514.67 635.222 2531.1 640.829 2550.82 640.829C2567.83 640.829 2582.53 636.962 2594.9 629.229C2607.66 621.495 2617.52 611.829 2624.48 600.229L2685.38 646.049C2673.39 664.995 2655.41 680.462 2631.44 692.449C2607.47 704.435 2580.59 710.429 2550.82 710.429ZM2549.66 461.029C2531.1 461.029 2515.25 466.635 2502.1 477.849C2488.95 489.062 2480.25 503.755 2476 521.929H2625.06C2620.81 505.302 2611.91 490.995 2598.38 479.009C2585.23 467.022 2568.99 461.029 2549.66 461.029Z" fill="white"/>
</svg>
